<?xml version="1.0" encoding="utf-8"?>
<!-- Generator: Adobe Illustrator 24.2.1, SVG Export Plug-In . SVG Version: 6.00 Build 0)  -->
<svg version="1.1" xmlns="http://www.w3.org/2000/svg" xmlns:xlink="http://www.w3.org/1999/xlink" x="0px" y="0px"
	 viewBox="0 0 1200 1200" style="enable-background:new 0 0 1200 1200;" xml:space="preserve">
<style type="text/css">
	.st0{display:none;}
	.st1{display:inline;fill:#FBB03B;}
	.st2{fill:#FFFFFF;}
	.st3{fill:#14243D;}
	.st4{fill:#22844E;stroke:#14243D;stroke-width:6;stroke-miterlimit:10;}
	.st5{display:none;fill:#14243D;}
	.st6{display:inline;}
	.st7{fill:#22844E;}
	.st8{display:inline;fill:#14243D;}
	.st9{display:inline;fill:#22844E;}
	.st10{fill:none;}
</style>
<g id="Calque_7" class="st0">
	<rect x="77.5" y="306" class="st1" width="2649" height="588"/>
</g>
<g id="logo_couleur">
	<g>
		<circle class="st2" cx="606" cy="602.5" r="367.5"/>
	</g>
	<path class="st3" d="M996,630.5c4.3-3.1,9.6-4.5,14.9-4.4l0,0c8,0.1,14.7-6.3,14.8-14.3c0.1-8-6.3-14.7-14.3-14.8l0,0
		c-5.3-0.1-10.5-1.7-14.8-4.9c-6.1-4.6-8.6-10.2-9.6-13.2c-0.2-3.2-0.4-6.3-0.7-9.4c0.3-2.6,1.5-9.4,7.5-15.7
		c3.7-3.8,8.5-6.3,13.8-7.3l0,0c7.9-1.4,13.1-9,11.7-16.9c-1.4-7.9-9-13.1-16.9-11.7l0,0c-5.2,1-10.7,0.4-15.4-1.9
		c-6.9-3.3-10.6-8.4-12.1-11.1c-1.4-5.1-2.9-10.2-4.5-15.3l0.1,0.1c0,0-1.9-8.7,3.8-18.1c2.7-4.5,7-8,11.9-10l0,0
		c7.4-3.1,10.9-11.6,7.8-19c-3.1-7.4-11.6-10.9-19-7.8l0,0c-4.9,2-10.3,2.7-15.5,1.4c-10.7-2.6-15.5-10-15.5-10l0.4,0.9
		c-1.8-3.4-3.6-6.7-5.5-10c-0.8-3.1-1.7-9.2,0.9-16.4c1.8-5,5.3-9.2,9.7-12.2l0,0c6.7-4.5,8.4-13.6,3.9-20.2
		c-4.5-6.7-13.6-8.4-20.2-3.9l0,0c-4.4,3-9.6,4.6-14.9,4.5c-8.6-0.3-14.4-4.2-16.5-5.9c-2.8-3.5-5.7-6.9-8.7-10.3l0.8,0.8
		c0,0-5.2-7.2-3.8-18.1c0.7-5.3,3.2-10.1,6.8-14l0,0c5.5-5.8,5.3-15-0.5-20.6h0c-5.8-5.5-15.1-5.3-20.6,0.5l0,0
		c-3.7,3.8-8.4,6.6-13.6,7.6c-10.8,2-18.3-2.9-18.3-2.9l0.7,0.6c-2.6-2-5.1-4-7.8-6c-1.4-1.5-6.2-7.2-6.9-16.5
		c-0.4-5.3,1.1-10.6,3.9-15l0,0c4.3-6.8,2.2-15.8-4.6-20.1c-6.8-4.3-15.8-2.2-20.1,4.6l0,0c-2.8,4.5-6.9,8.1-11.8,10.1
		c-9,3.6-16.6,1.6-18.3,1c-3.7-1.9-7.5-3.7-11.3-5.5l0.2,0.1c0,0-7.7-4.4-10.9-14.9c-1.5-5.1-1.2-10.5,0.5-15.5l0,0
		c2.7-7.6-1.3-15.9-8.9-18.6c-7.6-2.7-15.9,1.3-18.6,8.9l0,0c-1.8,5-4.9,9.4-9.3,12.5c-6.8,4.7-13.5,5.1-16.4,5
		c-4.2-1.1-8.4-2.1-12.7-3.1l3.2,0.4c0,0-8.5-2.9-13.8-12.5c-2.6-4.7-3.4-10-2.7-15.3l0,0c1-8-4.6-15.3-12.6-16.3
		c-8-1-15.3,4.6-16.3,12.6l0,0c-0.7,5.3-2.9,10.3-6.5,14.1c-6.1,6.5-13.2,8-15.6,8.4c-3.8-0.2-7.7-0.3-11.5-0.4
		c-1.8-0.3-9.4-2.2-15.6-9.5c-3.4-4-5.3-9.2-5.7-14.5l0,0c-0.6-8-7.6-14.1-15.6-13.5c-8,0.6-14,7.6-13.5,15.6l0,0
		c0.4,5.3-0.8,10.6-3.6,15.1c-4.9,7.8-11.7,10.7-13.8,11.4c-4.2,0.7-8.4,1.4-12.5,2.2c-3.3-0.3-9.1-1.4-14.8-6
		c-4.2-3.3-7.1-7.9-8.5-13l0,0c-2.2-7.7-10.2-12.3-17.9-10.1c-7.7,2.2-12.3,10.2-10.1,17.9l0,0c1.4,5.1,1.4,10.6-0.5,15.5
		c-3,7.9-8.4,12.1-10.7,13.5c-4.6,1.8-9.2,3.6-13.7,5.6l2.6-1.4c0,0-8.6,2.6-18.5-2.1c-4.8-2.3-8.6-6.2-11.1-10.9l0,0
		c-3.8-7.1-12.6-9.7-19.7-5.9c-7.1,3.8-9.7,12.6-5.9,19.7l0,0c2.5,4.7,3.7,10,2.9,15.3c-1.5,10.9-8.4,16.4-8.4,16.4l0.1-0.1
		c-2.5,1.7-5,3.3-7.5,5.1c-1.7,0.8-8.7,3.8-18,1.4c-5.1-1.3-9.7-4.4-13.1-8.4l0,0c-5.1-6.2-14.3-7-20.5-1.9
		c-6.2,5.1-7,14.3-1.9,20.5l0,0c3.4,4.1,5.6,9.1,5.9,14.4c0.6,9-3.2,15.2-4.5,17.1c-3,3-6,6-8.9,9.1l0.4-0.5c0,0-6.8,5.9-17.8,5.5
		c-5.3-0.2-10.4-2.2-14.6-5.4l0,0c-6.3-4.9-15.5-3.8-20.4,2.6c-4.9,6.3-3.8,15.5,2.6,20.4l0,0c4.2,3.3,7.4,7.7,8.8,12.8
		c2.2,7.8,0.6,14.2-0.4,16.9c-1.6,2.5-3.3,5-4.8,7.5c-1.9,2-7,6.5-15.3,7.9c-5.2,0.9-10.6-0.1-15.4-2.5l0,0
		c-7.2-3.6-15.9-0.7-19.5,6.5c-3.6,7.2-0.7,15.9,6.5,19.5l0,0c4.7,2.4,8.7,6.1,11.2,10.8c3.3,6.4,3.4,12.3,3,15.5
		c-2.4,6-4.7,12-6.8,18.1l0.6-2.6c0,0-3.7,8.1-13.8,12.3c-4.9,2-10.4,2.3-15.5,1l0,0c-7.8-1.9-15.7,2.9-17.6,10.7
		c-1.9,7.8,2.9,15.7,10.7,17.6l0,0c5.2,1.3,9.9,4,13.3,8.1c5,6,6.2,12.2,6.5,15.3c-0.6,3.5-1.1,7.1-1.6,10.7c-0.6,1.9-3.2,9-11,14.2
		c-4.4,2.9-9.7,4.2-15,4l0,0c-8-0.4-14.8,5.8-15.2,13.9c-0.4,8,5.8,14.8,13.9,15.2l0,0c5.3,0.2,10.5,2,14.6,5.3
		c6.9,5.5,9,12.3,9.6,14.7c0.2,4.6,0.5,9.1,0.8,13.6c-0.3,2.6-1.7,9.4-7.8,15.6c-3.7,3.8-8.6,6.2-13.9,7l0,0
		c-7.9,1.3-13.3,8.8-12,16.8c1.3,7.9,8.8,13.3,16.8,12l0,0c5.2-0.9,10.7-0.2,15.4,2.2c7.4,3.7,10.9,9.3,12.2,11.9
		c1.2,4.5,2.4,9,3.7,13.4l-1.2-3c0,0,1.7,8.7-4.1,18c-2.8,4.5-7.1,7.9-12.1,9.8l0,0c-7.5,3-11.1,11.5-8.1,18.9
		c3,7.5,11.5,11.1,18.9,8.1l0,0c4.9-2,10.4-2.5,15.5-1.2c8,2.1,12.7,6.8,14.5,9c2.3,4.7,4.7,9.3,7.2,13.8c0.7,3.3,1.2,8.9-1.1,15.4
		c-1.8,5-5.3,9.2-9.7,12.2l0,0c-6.7,4.5-8.4,13.6-3.9,20.2c4.5,6.7,13.6,8.4,20.2,3.9l0,0c4.4-3,9.6-4.6,14.9-4.5
		c5.4,0.2,9.7,1.8,12.7,3.4c3.9,5.1,8,10.1,12.2,14.9c1.4,2.8,3.7,8.6,2.7,16.2c-0.7,5.3-3.2,10.1-6.8,14l0,0
		c-5.5,5.8-5.3,15,0.5,20.6c5.8,5.5,15,5.3,20.6-0.5l0,0c3.7-3.8,8.4-6.6,13.6-7.6c5.4-1,10-0.3,13.2,0.7
		c5.1,4.3,10.3,8.4,15.6,12.5c2,2.8,4.6,7.6,5.1,14.3c0.4,5.3-1.1,10.6-3.9,15l0,0c-4.3,6.8-2.2,15.8,4.6,20.1h0
		c6.8,4.3,15.8,2.2,20.1-4.6l0,0c2.8-4.5,6.9-8.1,11.8-10.1c5.5-2.2,10.4-2.3,13.8-1.9c6.4,3.4,13,6.6,19.6,9.6
		c2.5,2.4,5.7,6.3,7.5,12.3c1.5,5.1,1.2,10.5-0.5,15.5l0,0c-2.7,7.6,1.3,15.9,8.9,18.6c7.6,2.7,15.9-1.3,18.6-8.9l0,0
		c1.8-5,4.9-9.4,9.3-12.5c4.4-3,8.7-4.2,12-4.7c7,1.9,14.1,3.7,21.2,5.2c2.8,1.9,6.5,5.1,9.2,10.1c2.6,4.7,3.4,10,2.7,15.3l0,0
		c-1,8,4.6,15.3,12.6,16.3c8,1,15.3-4.6,16.3-12.6l0,0c0.7-5.3,2.9-10.3,6.5-14.1c3.7-3.9,7.7-6,10.8-7.1c5.7,0.3,11.4,0.6,17.2,0.6
		c0.2,0,0.3,0,0.5,0c2.7,0.6,9.2,2.8,14.7,9.3c3.4,4,5.3,9.2,5.7,14.5l0,0c0.6,8,7.6,14,15.6,13.5c8-0.6,14-7.6,13.5-15.6l0,0
		c-0.4-5.3,0.8-10.6,3.6-15.1c5.8-9.3,14.4-11.6,14.4-11.6l-0.6,0c3.4-0.6,6.8-1.2,10.2-1.8c1.9-0.1,9.5,0.1,17,5.9
		c4.2,3.3,7.1,7.9,8.6,13l0,0c2.2,7.7,10.3,12.2,18,10c7.7-2.2,12.2-10.3,10-18l0,0c-1.5-5.1-1.4-10.6,0.4-15.5
		c3.8-10.3,11.7-14.3,11.7-14.3l-0.6,0.2c4.8-1.9,9.5-3.8,14.2-5.8c3.3-0.4,9.3-0.6,16,2.6c4.8,2.3,8.6,6.2,11.1,10.9l0,0
		c3.8,7.1,12.6,9.7,19.7,5.9c7.1-3.8,9.7-12.6,5.9-19.7l0,0c-2.5-4.7-3.7-10-2.9-15.3c1.2-8.7,5.8-13.9,7.6-15.7
		c5.5-3.7,10.9-7.5,16.3-11.4c3.3-0.8,8.1-1.4,13.7,0c5.1,1.3,9.7,4.3,13.1,8.4l0,0c5.2,6.2,14.3,7,20.5,1.8
		c6.2-5.2,7-14.3,1.8-20.5l0,0c-3.4-4.1-5.6-9.1-6-14.4c-0.6-8.8,3-15,4.4-17.1c2.7-2.8,5.4-5.7,8.1-8.6c2.2-1.5,8.2-5.1,16.9-4.8
		c5.3,0.2,10.4,2.2,14.6,5.4l0,0c6.3,4.9,15.5,3.8,20.4-2.6v0c4.9-6.3,3.8-15.5-2.6-20.4l0,0c-4.2-3.3-7.4-7.7-8.8-12.8
		c-3-10.6,1-18.4,1-18.4l-5.1,6.6c3.7-5.7,7.3-11.5,10.8-17.5c1.6-1.9,6.6-6.9,15.4-8.6c5.2-1,10.6-0.2,15.4,2.1l0,0
		c7.3,3.4,16,0.3,19.4-7c3.4-7.3,0.3-16-7-19.4l0,0c-4.8-2.2-8.9-5.9-11.5-10.5c-4.3-7.8-3.6-15-3.2-17.4c1.5-4.1,2.9-8.1,4.2-12.3
		c1.4-2.4,5.3-8,13-11.3c4.9-2.1,10.3-2.4,15.5-1.3l0,0c7.8,1.8,15.6-3.1,17.4-11c1.8-7.8-3.1-15.6-11-17.4l0,0
		c-5.2-1.2-9.9-3.8-13.4-7.8c-5.2-6-6.5-12.2-6.8-15.3c0.6-4.3,1.1-8.6,1.6-13C986.6,641.2,989.3,635.2,996,630.5z M885.3,390.8
		c17.8-1.5,33.4,11.7,34.9,29.5s-11.7,33.4-29.5,34.9s-33.4-11.7-34.9-29.5S867.5,392.3,885.3,390.8z M324.6,392.8
		c17.8-1.5,33.4,11.7,34.9,29.5c1.5,17.8-11.7,33.4-29.5,34.9c-17.8,1.5-33.4-11.7-34.9-29.5C293.7,409.9,306.9,394.3,324.6,392.8z
		 M372.3,869.5c-17.8,1.5-33.4-11.7-34.9-29.5c-1.5-17.8,11.7-33.4,29.5-34.9c17.8-1.5,33.4,11.7,34.9,29.5
		C403.3,852.5,390.1,868.1,372.3,869.5z M856,863.2c-17.8,1.5-33.4-11.7-34.9-29.5c-1.5-17.8,11.7-33.4,29.5-34.9
		s33.4,11.7,34.9,29.5C887,846.2,873.8,861.8,856,863.2z M892.4,757.6C892.4,757.6,892.3,757.6,892.4,757.6l-40.4,5.5
		c-3,0.4-5.7,1.9-7.7,4.2l-64.6,77.1c-2.1,2.5-3.1,5.6-2.8,8.8l1.8,22.1c-48.3,29.3-105,46.2-165.7,46.2
		c-63,0-121.7-18.2-171.2-49.6l1.5-18.6c0.3-3.2-0.7-6.4-2.8-8.8l-64.6-77.1c-1.9-2.3-4.7-3.8-7.7-4.2l-34.1-4.7
		c-26.1-46.3-41-99.7-41-156.7c0-34.2,5.4-67.1,15.3-97.9l14.6-2.2c3.1-0.5,5.8-2.1,7.7-4.6l60.6-80.7c1.8-2.3,2.6-5.2,2.3-8.1
		l-3.4-35.9C447.8,316.4,526.4,282,613,282c81.7,0,156.3,30.7,212.8,81.1l-0.3-0.1c-0.7-0.3-1.4,0.2-1.5,0.9l-4.1,44.3
		c-0.3,3,0.6,6,2.4,8.4l60.4,80.5c1.9,2.6,4.8,4.3,7.9,4.7l19.4,2.9c2.6,0.4,5.2-0.1,7.5-1.3c10,31,15.5,64.1,15.5,98.5
		C932.8,658.4,918.1,711.5,892.4,757.6z"/>
	<path class="st4" d="M1028.1,576.6l-13-30.2l20.6-25.7l20.5-25.7l102.3,13.9c-14.9-37.1-48.6-65.3-91-71
		c-49.1-6.6-95.2,19-116.8,60.6l-691.8,87c-17.7-25.5-45.6-43.7-78.8-48.2c-42.3-5.7-82.3,12.6-106.4,44.3l102.2,13.7l13,30.2
		l13,30.2l-20.6,25.7l-20.5,25.5L58.4,693.2c14.9,37.1,48.6,65.3,91,71c47.1,6.3,91.4-17,114.1-55.6l697.6-87.7
		c17.8,23.3,44.4,39.7,75.7,44c42.3,5.7,82.3-12.6,106.4-44.3l-102.2-13.7L1028.1,576.6z"/>
	<g>
		<path class="st2" d="M351.4,600.6l11.2-1.4l7.7,61l18.4-2.3l1.3,10.2l-29.6,3.7L351.4,600.6z"/>
		<path class="st2" d="M384.8,607.3l-3.7,0.5l-1.4-10.8l10.8-1.4l1.2,9.7l-4.5,14.1l-5.2,0.7L384.8,607.3z"/>
		<path class="st2" d="M397.9,578l10.6-1.3l9.8,10.6l-8.4,1.1l-5.9-4.9l-4.5,6.2l-8.4,1.1L397.9,578z M399.7,594.5l11.2-1.4
			l8.9,71.1l-11.2,1.4L399.7,594.5z"/>
		<path class="st2" d="M420,591.9l11.2-1.4l7.7,61l18.4-2.3l1.3,10.2l-29.6,3.7L420,591.9z"/>
		<path class="st2" d="M455.8,587.4l30.5-3.8l1.3,10.2l-19.3,2.4l2.4,18.8l15.3-1.9l1.3,10.2l-15.3,1.9l2.7,21.8l19.3-2.4l1.3,10.2
			l-30.5,3.8L455.8,587.4z"/>
		<path class="st2" d="M519.2,579.5l15.1-1.9l20.5,69.7l-11.2,1.4l-3.8-13.9l0,0.2l-12.7,1.6l-0.3,14.2l-10.4,1.3L519.2,579.5z
			 M537.4,625.5L528,591l-0.2,0l-0.5,35.8L537.4,625.5z"/>
		<path class="st2" d="M564.3,642.4c-3.2-2.7-5.2-7-5.9-12.7l-6.8-54.3l11.2-1.4l6.9,55.1c0.3,2.4,1,4.1,2.1,5.1
			c1.1,1,2.6,1.3,4.4,1.1c1.8-0.2,3.2-0.9,4-2.2c0.8-1.2,1.1-3,0.8-5.5l-6.9-55.1l10.8-1.4l6.8,54.3c0.7,5.8-0.1,10.4-2.6,13.8
			c-2.5,3.4-6.4,5.5-11.8,6.2C571.8,646.1,567.5,645.1,564.3,642.4z"/>
		<path class="st2" d="M607.7,603.6L591,570.4l11.8-1.5l10.4,22l0.2,0l4.8-23.9l10.6-1.3l-7.9,36.3l17.5,34.8l-11.8,1.5l-11.2-23.8
			l-0.2,0l-5.2,25.8l-10.6,1.3L607.7,603.6z"/>
		<path class="st2" d="M664.6,629.8c-3.2-2.7-5.1-6.8-5.8-12.4l-4.8-38.2c-0.7-5.6,0.2-10,2.6-13.4c2.4-3.4,6.3-5.4,11.7-6.1
			c5.4-0.7,9.6,0.3,12.8,3c3.2,2.7,5.1,6.8,5.8,12.4l0.9,7.5l-10.6,1.3l-1-8.2c-0.6-4.4-2.7-6.4-6.4-5.9c-3.7,0.5-5.3,2.9-4.8,7.3
			l5,39.7c0.5,4.3,2.7,6.3,6.4,5.8c3.7-0.5,5.3-2.9,4.8-7.2l-1.4-10.9l10.6-1.3l1.3,10.1c0.7,5.6-0.2,10-2.6,13.4
			c-2.4,3.4-6.3,5.4-11.7,6.1C672.1,633.5,667.8,632.5,664.6,629.8z"/>
		<path class="st2" d="M706.8,597.4l-18.6-39.1l11.9-1.5l10.9,25.2l0.2,0l4.3-27.1l10.9-1.4L718,596l3.8,30.3l-11.2,1.4L706.8,597.4
			z"/>
		<path class="st2" d="M742.4,620c-3.2-2.7-5.1-6.8-5.8-12.4l-4.8-38.2c-0.7-5.6,0.2-10,2.6-13.4c2.4-3.4,6.3-5.4,11.7-6.1
			c5.4-0.7,9.6,0.3,12.8,3c3.2,2.7,5.1,6.8,5.8,12.4l0.9,7.5l-10.6,1.3l-1-8.2c-0.6-4.4-2.7-6.4-6.4-5.9c-3.7,0.5-5.3,2.9-4.8,7.3
			l5,39.7c0.5,4.3,2.7,6.3,6.4,5.8c3.7-0.5,5.3-2.9,4.8-7.2l-1.4-10.9l10.6-1.3l1.3,10.1c0.7,5.6-0.2,10-2.6,13.4
			c-2.4,3.4-6.3,5.4-11.7,6.1S745.6,622.7,742.4,620z"/>
		<path class="st2" d="M770.2,547.9l11.2-1.4l7.7,61l18.4-2.3l1.3,10.2l-29.6,3.7L770.2,547.9z"/>
		<path class="st2" d="M805.9,543.4l30.5-3.8l1.3,10.2l-19.3,2.4l2.4,18.8l15.3-1.9l1.3,10.2l-15.3,1.9l2.7,21.8l19.3-2.4l1.3,10.2
			l-30.5,3.8L805.9,543.4z"/>
		<path class="st2" d="M854.6,605.9c-3.2-2.7-5.1-7-5.8-12.7l-0.5-4.1l10.6-1.3l0.6,4.9c0.6,4.6,2.8,6.7,6.7,6.2
			c1.9-0.2,3.3-1,4.1-2.2c0.8-1.2,1.1-3.1,0.8-5.6c-0.4-3-1.4-5.5-3-7.6c-1.6-2.1-4.5-4.5-8.5-7.2c-5.1-3.5-8.8-6.8-11-9.8
			c-2.2-3.1-3.6-6.6-4.1-10.8c-0.7-5.6,0.2-10.2,2.6-13.6c2.5-3.4,6.4-5.5,11.8-6.2c5.4-0.7,9.6,0.4,12.7,3.1
			c3.1,2.7,5.1,7,5.8,12.7l0.4,2.9l-10.6,1.3l-0.5-3.7c-0.3-2.4-1-4.2-2.1-5.2c-1.1-1-2.5-1.4-4.4-1.2c-3.7,0.5-5.3,3-4.7,7.5
			c0.3,2.6,1.3,4.9,3,7c1.7,2.1,4.5,4.5,8.6,7.2c5.2,3.5,8.9,6.8,11,9.9c2.2,3.1,3.5,6.9,4.1,11.4c0.7,5.8-0.1,10.5-2.6,14
			s-6.5,5.6-12,6.2C862,609.7,857.7,608.6,854.6,605.9z"/>
	</g>
	<g id="Calque_5">
		
			<image style="display:none;overflow:visible;" width="408" height="350" xlink:href="A058ACCF.jpg"  transform="matrix(1.0479 0 0 1.0479 399.635 648.1769)">
		</image>
		<rect x="523.1" y="897.3" class="st3" width="68.1" height="60.8"/>
		<rect x="634.2" y="897.3" class="st3" width="68.1" height="60.8"/>
		<rect x="597.5" y="897.3" class="st3" width="30.4" height="60.8"/>
		<polygon class="st3" points="523.1,889.9 535.7,866.9 590.2,866.9 590.2,889.9 		"/>
		<polygon class="st3" points="701.3,889.9 688.7,866.9 634.2,866.9 634.2,889.9 		"/>
		<path class="st3" d="M593.9,819.7l4.1,13.6v56.6h8.3v-14.7l6.2-6.3l6.2,6.3v14.7h9.3v-56.6l3.7-13.6H593.9z M612.7,846.7
			c-4.8,0-8.7-3.9-8.7-8.7c0-4.8,3.9-8.7,8.7-8.7c4.8,0,8.7,3.9,8.7,8.7C621.4,842.8,617.5,846.7,612.7,846.7z"/>
		<rect x="593.9" y="783.6" class="st3" width="37.8" height="29.3"/>
		<polygon class="st3" points="627.6,743.2 623.7,764.2 623.5,764.2 623.5,739 602,739 602,764.2 601.8,764.2 597.9,743.2 
			594.1,764.2 593.9,764.2 593.9,777.8 631.7,777.8 631.7,764.2 631.5,764.2 		"/>
		<path class="st3" d="M608.3,724.2c-3.7,1.8-6.3,5.6-6.3,10H624c0-4.4-2.6-8.2-6.3-10v-4.2h0c1.9-1.4,3.2-3.7,3.2-6.3
			c0-4.4-3.5-7.9-7.9-7.9c-4.4,0-7.9,3.5-7.9,7.9c0,2.6,1.3,4.9,3.2,6.3h0V724.2z"/>
		<rect x="612.2" y="686.9" class="st3" width="1.6" height="20.1"/>
	</g>
	<g id="vélo">
		<path class="st3" d="M483.9,421.9c-36.7,5-62.4,38.9-57.4,75.6c5,36.7,38.9,62.4,75.6,57.4c36.7-5,62.4-38.9,57.4-75.6
			C554.4,442.6,520.6,416.9,483.9,421.9z M500.8,545.6c-31.6,4.3-60.7-17.8-65-49.4s17.8-60.7,49.4-65s60.7,17.8,65,49.4
			C554.5,512.2,532.4,541.3,500.8,545.6z"/>
		<path class="st3" d="M693,395.3c-36.7,5-62.4,38.9-57.4,75.6c5,36.7,38.9,62.4,75.6,57.4c36.7-5,62.4-38.9,57.4-75.6
			S729.7,390.2,693,395.3z M709.9,519c-31.6,4.3-60.7-17.8-65-49.4c-4.3-31.6,17.8-60.7,49.4-65s60.7,17.8,65,49.4
			S741.5,514.6,709.9,519z"/>
		<circle class="st5" cx="494.4" cy="488.2" r="8.7"/>
		<circle class="st3" cx="700.3" cy="460" r="8.7"/>
		<circle class="st3" cx="495" cy="487.4" r="8.7"/>
		<circle class="st3" cx="585.3" cy="476.5" r="18"/>
		<circle class="st3" cx="585.3" cy="476.5" r="10.8"/>
		<polygon class="st3" points="502,485 570.6,475.6 571.4,481.3 498.4,491.3 		"/>
		
			<rect x="455.9" y="434" transform="matrix(0.4045 -0.9145 0.9145 0.4045 -92.7478 731.5541)" class="st3" width="119" height="5.9"/>
		
			<rect x="499.3" y="411.6" transform="matrix(-0.4547 -0.8906 0.8906 -0.4547 437.621 1097.1055)" class="st3" width="110.7" height="5.9"/>
		
			<rect x="536.3" y="373.1" transform="matrix(-0.9908 0.1355 -0.1355 -0.9908 1228.7472 668.4387)" class="st3" width="110.7" height="5.9"/>
		<path class="st3" d="M637.4,348.5l32.1-4.4c0.6-0.1,1.2,0.4,1.3,1l0.5,3.5c0.1,0.6-0.4,1.2-1,1.3l-32.1,4.4
			c-0.6,0.1-1.2-0.4-1.3-1l-0.5-3.5C636.3,349.1,636.8,348.6,637.4,348.5z"/>
		<path class="st3" d="M662.2,359.6l9.2-1.3c0.6-0.1,1.2,0.4,1.3,1l0.5,3.5c0.1,0.6-0.4,1.2-1,1.3l-9.2,1.3c-0.6,0.1-1.2-0.4-1.3-1
			l-0.5-3.5C661.2,360.3,661.6,359.7,662.2,359.6z"/>
		
			<rect x="563.6" y="413" transform="matrix(-0.5232 0.8522 -0.8522 -0.5232 1297.2863 106.1706)" class="st3" width="110.7" height="5.9"/>
		<path class="st3" d="M643.2,351.1l57.3,103c0.8,1.4,0.3,3.3-1.1,4.1l0,0c-1.4,0.8-3.2,0.3-4-1.2l-57.3-103
			c-0.8-1.4-0.3-3.3,1.1-4.1l0,0C640.6,349.1,642.4,349.6,643.2,351.1z"/>
		<g>
			<path class="st3" d="M667.7,344.3l0.8,5.7c2.4-0.3,4.6,1.3,4.9,3.7c0.3,2.4-1.3,4.6-3.7,4.9l0.8,5.7c5.5-0.8,9.4-5.8,8.6-11.4
				C678.3,347.4,673.2,343.6,667.7,344.3z"/>
		</g>
		<path class="st3" d="M509.3,357.3c1.4-0.2,47.6-3.6,47.6-3.6c5.9,0.6,5.1,5.1-1.9,7.5c-7,2.4-43.3,13.2-43.3,13.2
			C498.9,377.6,495.1,360.6,509.3,357.3z"/>
		
			<rect x="587.4" y="493.6" transform="matrix(0.9908 -0.1355 0.1355 0.9908 -62.614 84.4007)" class="st3" width="2.9" height="17.3"/>
		
			<rect x="584.2" y="509.4" transform="matrix(0.9908 -0.1355 0.1355 0.9908 -63.7655 84.6387)" class="st3" width="11.5" height="2.9"/>
	</g>
</g>
<g id="Calque_6" class="st0">
	<g class="st6">
		<circle class="st7" cx="598.1" cy="593.6" r="185.9"/>
		<path class="st3" d="M843.4,607.4c2.7-2,6.1-2.9,9.4-2.9h0c5.1,0,9.3-4.1,9.3-9.2c0-5.1-4.1-9.3-9.2-9.3h0c-3.4,0-6.7-1-9.4-3
			c-3.9-2.9-5.6-6.4-6.2-8.3c-0.2-2-0.3-4-0.5-6c0.2-1.7,0.9-6,4.6-10c2.3-2.5,5.4-4.1,8.7-4.7l0,0c5-1,8.3-5.8,7.3-10.9
			c-1-5-5.8-8.3-10.9-7.3l0,0c-3.3,0.7-6.8,0.3-9.8-1.1c-4.4-2.1-6.8-5.2-7.8-7c-0.9-3.2-1.9-6.5-3-9.6l0,0.1c0,0-1.3-5.5,2.3-11.5
			c1.7-2.9,4.4-5.1,7.5-6.5l0,0c4.7-2,6.8-7.5,4.8-12.2c-2-4.7-7.5-6.8-12.2-4.8l0,0c-3.1,1.3-6.5,1.8-9.8,1
			c-6.8-1.5-9.9-6.2-9.9-6.2l0.3,0.6c-1.2-2.1-2.3-4.2-3.6-6.3c-0.5-1.9-1.2-5.8,0.4-10.4c1.1-3.2,3.3-5.9,6-7.8l0,0
			c4.2-2.9,5.2-8.7,2.3-12.9c-2.9-4.2-8.7-5.2-12.9-2.3l0,0c-2.8,1.9-6.1,3-9.4,3c-5.5-0.1-9.2-2.6-10.5-3.6
			c-1.8-2.2-3.7-4.3-5.6-6.4l0.5,0.5c0,0-3.4-4.5-2.6-11.4c0.4-3.3,1.9-6.5,4.2-8.9l0,0c3.5-3.7,3.2-9.6-0.5-13.1h0
			c-3.7-3.5-9.6-3.2-13.1,0.5l0,0c-2.3,2.5-5.3,4.3-8.6,4.9c-6.8,1.3-11.6-1.7-11.6-1.7l0.4,0.4c-1.6-1.3-3.3-2.5-5-3.7
			c-0.9-0.9-4-4.5-4.5-10.4c-0.3-3.4,0.6-6.7,2.4-9.6l0,0c2.7-4.4,1.3-10-3.1-12.7c-4.4-2.7-10-1.3-12.7,3.1l0,0
			c-1.7,2.9-4.3,5.2-7.4,6.5c-5.7,2.4-10.6,1.1-11.6,0.8c-2.4-1.2-4.8-2.3-7.2-3.4l0.1,0c0,0-4.9-2.7-7-9.4c-1-3.2-0.9-6.7,0.2-9.9
			l0,0c1.6-4.8-1-10.1-5.8-11.7c-4.8-1.6-10.1,1-11.7,5.8l0,0c-1.1,3.2-3.1,6-5.8,8c-4.3,3-8.5,3.3-10.3,3.3
			c-2.7-0.7-5.4-1.3-8.1-1.8l2,0.2c0,0-5.4-1.8-8.9-7.8c-1.7-2.9-2.2-6.3-1.9-9.7l0,0c0.6-5.1-3-9.7-8.1-10.2
			c-5.1-0.6-9.7,3-10.2,8.1l0,0c-0.4,3.3-1.7,6.5-4,9c-3.8,4.2-8.3,5.2-9.8,5.4c-2.4-0.1-4.9-0.1-7.3-0.2c-1.2-0.2-6-1.3-10-5.9
			c-2.2-2.5-3.5-5.8-3.8-9.1l0,0c-0.4-5.1-4.9-8.9-10-8.4c-5.1,0.4-8.9,4.9-8.4,10l0,0c0.3,3.4-0.4,6.8-2.1,9.6
			c-3,5-7.3,6.9-8.6,7.3c-2.7,0.5-5.3,1-7.9,1.5c-2.1-0.1-5.8-0.8-9.5-3.7c-2.7-2.1-4.5-5-5.5-8.2l0,0c-1.4-4.9-6.6-7.7-11.5-6.3
			c-4.9,1.4-7.7,6.6-6.3,11.5l0,0c0.9,3.2,1,6.7-0.2,9.9c-1.8,5.1-5.2,7.7-6.7,8.7c-2.9,1.2-5.8,2.4-8.7,3.7l1.6-0.9
			c0,0-5.4,1.7-11.8-1.2c-3.1-1.4-5.5-3.8-7.2-6.8l0,0c-2.5-4.5-8.1-6.1-12.6-3.6c-4.5,2.5-6.1,8.1-3.6,12.6l0,0
			c1.6,2.9,2.4,6.3,2,9.7c-0.9,6.9-5.2,10.5-5.2,10.5l0.1,0c-1.6,1.1-3.2,2.2-4.7,3.3c-1.1,0.5-5.5,2.5-11.4,1.1
			c-3.3-0.8-6.2-2.7-8.4-5.2l0,0c-3.3-3.9-9.1-4.3-13-1c-3.9,3.3-4.3,9.1-1,13l0,0c2.2,2.6,3.6,5.7,3.9,9.1
			c0.4,5.7-1.9,9.7-2.7,10.9c-1.9,1.9-3.7,3.9-5.6,5.8l0.2-0.3c0,0-4.3,3.8-11.2,3.7c-3.4-0.1-6.6-1.3-9.3-3.3l0,0
			c-4.1-3.1-9.9-2.3-12.9,1.8c-3.1,4.1-2.3,9.9,1.8,12.9l0,0c2.7,2,4.8,4.8,5.7,8c1.5,5,0.5,9-0.1,10.8c-1,1.6-2,3.2-3,4.8
			c-1.2,1.3-4.4,4.2-9.6,5.1c-3.3,0.6-6.7,0-9.8-1.4l0,0c-4.6-2.2-10.1-0.3-12.3,4.3c-2.2,4.6-0.3,10.1,4.3,12.3l0,0
			c3,1.5,5.6,3.8,7.2,6.8c2.1,4,2.2,7.8,2.1,9.8c-1.5,3.8-2.9,7.7-4.2,11.6l0.4-1.6c0,0-2.3,5.2-8.7,7.9c-3.1,1.3-6.6,1.5-9.8,0.8
			l0,0c-5-1.2-9.9,1.9-11.1,6.9c-1.2,5,1.9,9.9,6.9,11.1l0,0c3.3,0.8,6.3,2.5,8.5,5c3.2,3.8,4.1,7.7,4.2,9.6
			c-0.3,2.3-0.6,4.5-0.9,6.8c-0.3,1.2-1.9,5.7-6.9,9.1c-2.8,1.9-6.1,2.8-9.5,2.7l0,0c-5.1-0.2-9.4,3.8-9.5,8.9
			c-0.2,5.1,3.8,9.4,8.9,9.5l0,0c3.4,0.1,6.7,1.2,9.3,3.3c4.4,3.5,5.8,7.7,6.2,9.3c0.2,2.9,0.4,5.8,0.6,8.6c-0.2,1.7-1,6-4.8,9.9
			c-2.3,2.4-5.4,4-8.7,4.6l0,0c-5,0.9-8.4,5.7-7.5,10.7c0.9,5,5.7,8.4,10.7,7.5l0,0c3.3-0.6,6.8-0.2,9.8,1.2c4.7,2.3,7,5.8,7.9,7.5
			c0.8,2.8,1.6,5.7,2.4,8.5l-0.8-1.9c0,0,1.2,5.5-2.5,11.5c-1.8,2.9-4.5,5-7.6,6.3l0,0c-4.7,2-7,7.4-5,12.1c2,4.7,7.4,7,12.1,5l0,0
			c3.1-1.3,6.6-1.7,9.8-0.9c5.1,1.2,8.1,4.2,9.3,5.6c1.5,2.9,3.1,5.8,4.7,8.7c0.5,2.1,0.9,5.6-0.6,9.8c-1.1,3.2-3.3,5.9-6,7.8l0,0
			c-4.2,2.9-5.2,8.7-2.3,12.9c2.9,4.2,8.7,5.2,12.9,2.3l0,0c2.8-1.9,6.1-3,9.4-3c3.4,0.1,6.2,1.1,8.1,2.1c2.5,3.2,5.2,6.3,7.9,9.4
			c0.9,1.8,2.4,5.4,1.9,10.3c-0.4,3.3-1.9,6.5-4.2,8.9l0,0c-3.5,3.7-3.2,9.6,0.5,13.1c3.7,3.5,9.6,3.2,13.1-0.5l0,0
			c2.3-2.5,5.3-4.3,8.6-4.9c3.4-0.7,6.3-0.3,8.4,0.3c3.3,2.7,6.6,5.3,10,7.8c1.3,1.7,3,4.8,3.3,9c0.3,3.4-0.6,6.7-2.4,9.6l0,0
			c-2.7,4.4-1.3,10,3.1,12.7h0c4.4,2.7,10,1.3,12.7-3.1l0,0c1.8-2.9,4.3-5.2,7.4-6.5c3.4-1.4,6.6-1.5,8.7-1.3
			c4.1,2.1,8.3,4.1,12.5,5.9c1.6,1.5,3.7,4,4.9,7.7c1,3.2,0.9,6.7-0.2,9.9l0,0c-1.6,4.8,1,10.1,5.8,11.7c4.8,1.6,10.1-1,11.7-5.8
			l0,0c1.1-3.2,3.1-6,5.8-8c2.8-1.9,5.5-2.8,7.6-3.1c4.5,1.2,9,2.2,13.5,3.1c1.8,1.2,4.2,3.2,6,6.3c1.7,2.9,2.2,6.3,1.9,9.7l0,0
			c-0.6,5.1,3,9.7,8.1,10.2c5.1,0.6,9.7-3.1,10.2-8.1l0,0c0.4-3.3,1.7-6.5,4-9c2.3-2.5,4.8-3.9,6.8-4.6c3.6,0.2,7.3,0.3,10.9,0.3
			c0.1,0,0.2,0,0.3,0c1.7,0.4,5.9,1.7,9.4,5.8c2.2,2.5,3.5,5.8,3.8,9.1l0,0c0.4,5.1,4.9,8.9,10,8.4c5.1-0.4,8.9-4.9,8.4-10l0,0
			c-0.3-3.4,0.4-6.8,2.1-9.6c3.6-6,9-7.5,9-7.5l-0.4,0c2.2-0.4,4.3-0.8,6.4-1.2c1.2-0.1,6,0,10.9,3.6c2.7,2,4.6,4.9,5.6,8.2l0,0
			c1.5,4.9,6.6,7.7,11.5,6.2c4.9-1.5,7.7-6.6,6.2-11.5l0,0c-1-3.2-1-6.7,0.1-9.9c2.3-6.6,7.3-9.2,7.3-9.2l-0.4,0.1
			c3-1.2,6-2.5,9-3.8c2.1-0.3,5.9-0.4,10.2,1.5c3.1,1.4,5.5,3.9,7.2,6.8l0,0c2.5,4.5,8.1,6.1,12.6,3.6c4.5-2.5,6.1-8.1,3.6-12.6l0,0
			c-1.6-2.9-2.4-6.3-2-9.7c0.7-5.5,3.6-8.9,4.7-10.1c3.5-2.4,6.9-4.8,10.2-7.4c2.1-0.6,5.1-1,8.7-0.1c3.3,0.8,6.2,2.7,8.4,5.2l0,0
			c3.3,3.9,9.2,4.3,13,1c3.9-3.3,4.3-9.2,1-13l0,0c-2.2-2.6-3.6-5.7-3.9-9.1c-0.5-5.6,1.8-9.5,2.6-10.9c1.7-1.8,3.4-3.7,5-5.5
			c1.4-1,5.2-3.3,10.7-3.2c3.4,0.1,6.6,1.3,9.3,3.3l0,0c4.1,3.1,9.9,2.3,12.9-1.8v0c3.1-4.1,2.3-9.9-1.8-12.9l0,0
			c-2.7-2-4.8-4.8-5.7-8c-2-6.7,0.5-11.7,0.5-11.7l-3.2,4.2c2.3-3.7,4.5-7.4,6.7-11.2c1-1.2,4.2-4.5,9.7-5.6
			c3.3-0.7,6.7-0.2,9.8,1.2l0,0c4.7,2.1,10.1,0,12.2-4.6c2.1-4.7,0-10.1-4.6-12.2l0,0c-3.1-1.4-5.7-3.6-7.4-6.6
			c-2.8-4.9-2.4-9.5-2.2-11c0.9-2.6,1.8-5.2,2.6-7.8c0.9-1.6,3.3-5.1,8.1-7.3c3.1-1.4,6.5-1.6,9.8-0.9l0,0c5,1.1,9.9-2.1,11-7.1
			c1.1-5-2.1-9.9-7.1-11l0,0c-3.3-0.7-6.3-2.4-8.6-4.9c-3.4-3.8-4.2-7.7-4.4-9.6c0.3-2.7,0.6-5.5,0.9-8.2
			C837.6,614.3,839.2,610.5,843.4,607.4z M597.2,822.3C471,822.3,368.6,720,368.6,593.8S471,365.2,597.2,365.2
			s228.6,102.3,228.6,228.6S723.4,822.3,597.2,822.3z"/>
	</g>
	<rect x="151.2" y="178.5" class="st8" width="201" height="76"/>
	<rect x="420.2" y="171.5" class="st9" width="266" height="81"/>
	<rect x="150.5" y="178" class="st3" width="201" height="76"/>
	<rect x="419.5" y="171" class="st7" width="266" height="81"/>
</g>
<g id="logo_noir_police_bl" class="st0">
	<g class="st6">
		<path d="M1134.6,538.1L1134.6,538.1c3.3,0.8,6.3,2.6,8.5,5.1c3.2,3.8,3.9,7.7,4.1,9.7c-0.2,1.3-0.4,2.5-0.6,3.8
			c7.2,4.8,13.7,10.8,19,17.7l20-2.5c1.4-14.8,4.4-29.1,8.8-42.8l9.3-1.4c1.9-0.3,3.7-1.3,4.9-2.9l38.4-51.3
			c1.1-1.5,1.6-3.3,1.5-5.2l-2.1-22.8c36.6-35.5,86.4-57.4,141.4-57.4c51.9,0,99.2,19.5,135.1,51.5l-0.2-0.1
			c-0.4-0.2-0.9,0.1-0.9,0.6l-2.6,28.1c-0.2,1.9,0.4,3.8,1.5,5.4l38.3,51.1c0.1,0.1,0.1,0.2,0.2,0.3l39.2-4.9
			c7.5-13,18.4-23.3,31.1-30.2c-2-4.6-7.4-6.7-12-4.8l0,0c-3.1,1.3-6.6,1.7-9.8,0.9c-6.8-1.6-9.9-6.3-9.9-6.3l0.2,0.6
			c-1.1-2.1-2.3-4.2-3.5-6.3c-0.5-1.9-1.1-5.8,0.5-10.4c1.1-3.2,3.4-5.8,6.1-7.7l0,0c4.2-2.9,5.3-8.6,2.5-12.8
			c-2.9-4.2-8.6-5.3-12.8-2.5l0,0c-2.8,1.9-6.1,2.9-9.5,2.8c-5.5-0.2-9.1-2.7-10.5-3.7c-1.8-2.2-3.6-4.4-5.5-6.5l0.5,0.5
			c0,0-3.3-4.6-2.4-11.5c0.4-3.3,2-6.4,4.3-8.9l0,0c3.5-3.7,3.4-9.6-0.3-13.1h0c-3.7-3.5-9.6-3.4-13.1,0.3l0,0
			c-2.3,2.4-5.3,4.2-8.6,4.8c-6.9,1.3-11.6-1.8-11.6-1.8l0.4,0.4c-1.6-1.3-3.3-2.6-4.9-3.8c-0.9-1-4-4.6-4.4-10.5
			c-0.2-3.4,0.7-6.7,2.5-9.6l0,0c2.7-4.3,1.4-10-2.9-12.7c-4.3-2.7-10-1.4-12.7,2.9l0,0c-1.8,2.9-4.4,5.2-7.5,6.4
			c-5.7,2.3-10.6,1-11.6,0.7c-2.4-1.2-4.8-2.4-7.2-3.5l0.1,0c0,0-4.9-2.8-6.9-9.5c-1-3.2-0.8-6.7,0.3-9.9l0,0
			c1.7-4.8-0.8-10.1-5.7-11.8c-4.8-1.7-10.1,0.8-11.8,5.7l0,0c-1.1,3.2-3.1,6-5.9,7.9c-4.3,3-8.6,3.2-10.4,3.2
			c-2.7-0.7-5.4-1.4-8.1-2l2,0.3c0,0-5.4-1.8-8.8-8c-1.6-3-2.2-6.4-1.7-9.7l0,0c0.7-5.1-2.9-9.7-8-10.3c-5.1-0.7-9.7,2.9-10.4,8l0,0
			c-0.4,3.3-1.8,6.5-4.1,9c-3.9,4.1-8.3,5.1-9.9,5.3c-2.4-0.1-4.9-0.2-7.3-0.3c-1.2-0.2-6-1.4-9.9-6c-2.2-2.6-3.4-5.8-3.6-9.2l0,0
			c-0.4-5.1-4.8-8.9-9.9-8.5s-8.9,4.8-8.5,9.9l0,0c0.2,3.4-0.5,6.8-2.3,9.6c-3.1,5-7.4,6.8-8.7,7.2c-2.7,0.4-5.3,0.9-7.9,1.4
			c-2.1-0.2-5.8-0.9-9.4-3.8c-2.6-2.1-4.5-5-5.4-8.3l0,0c-1.4-4.9-6.5-7.8-11.4-6.4c-4.9,1.4-7.8,6.5-6.4,11.4l0,0
			c0.9,3.2,0.9,6.7-0.3,9.9c-1.9,5-5.3,7.7-6.8,8.6c-2.9,1.1-5.8,2.3-8.7,3.5l1.6-0.9c0,0-5.5,1.6-11.7-1.4c-3-1.5-5.5-3.9-7.1-6.9
			l0,0c-2.4-4.5-8-6.2-12.5-3.8c-4.5,2.4-6.2,8-3.8,12.5l0,0c1.6,3,2.3,6.4,1.9,9.7c-1,6.9-5.3,10.4-5.3,10.4l0.1,0
			c-1.6,1.1-3.2,2.1-4.8,3.2c-1.1,0.5-5.5,2.4-11.4,0.9c-3.3-0.8-6.1-2.8-8.3-5.4l0,0c-3.3-3.9-9.1-4.5-13-1.2
			c-3.9,3.3-4.5,9.1-1.2,13l0,0c2.2,2.6,3.5,5.8,3.7,9.1c0.4,5.7-2,9.7-2.9,10.9c-1.9,1.9-3.8,3.8-5.6,5.8l0.2-0.3
			c0,0-4.3,3.7-11.3,3.5c-3.4-0.1-6.6-1.4-9.3-3.4l0,0c-4-3.1-9.8-2.4-13,1.6c-3.1,4-2.4,9.8,1.6,13l0,0c2.7,2.1,4.7,4.9,5.6,8.1
			c1.4,5,0.4,9-0.3,10.8c-1,1.6-2.1,3.2-3.1,4.8c-1.2,1.3-4.4,4.1-9.7,5c-3.3,0.6-6.7-0.1-9.7-1.6l0,0c-4.6-2.3-10.1-0.4-12.4,4.1
			c-2.3,4.6-0.4,10.1,4.1,12.4l0,0c3,1.5,5.5,3.9,7.1,6.9c2.1,4.1,2.1,7.8,1.9,9.9c-1.5,3.8-3,7.6-4.3,11.5l0.4-1.6
			c0,0-2.3,5.1-8.8,7.8c-3.1,1.3-6.6,1.4-9.9,0.6l0,0c-5-1.2-10,1.8-11.2,6.8C1126.6,531.8,1129.6,536.9,1134.6,538.1z
			 M1560.5,457.3c11.3-0.9,21.2,7.4,22.1,18.7c0.9,11.3-7.4,21.2-18.7,22.1s-21.2-7.4-22.1-18.7
			C1540.9,468.2,1549.3,458.3,1560.5,457.3z M1204.7,458.6c11.3-0.9,21.2,7.4,22.1,18.7s-7.4,21.2-18.7,22.1s-21.2-7.4-22.1-18.7
			C1185,469.5,1193.4,459.6,1204.7,458.6z"/>
		<path d="M1636.1,640.9L1636.1,640.9c-3.3-0.8-6.3-2.4-8.6-5c-3.3-3.8-4.1-7.8-4.3-9.7c0.1-0.4,0.1-0.7,0.1-1.1
			c-6.4-4.2-12.2-9.3-17.3-15.4l-16.5,2.1c-2.8,28.2-11.5,54.7-24.7,78.3c0,0,0,0,0,0l-25.6,3.5c-1.9,0.3-3.6,1.2-4.9,2.7l-41,48.9
			c-1.3,1.6-1.9,3.6-1.8,5.6l1.1,14c-30.7,18.6-66.7,29.3-105.2,29.3c-40,0-77.2-11.6-108.7-31.5l1-11.8c0.2-2-0.5-4-1.8-5.6
			l-41-48.9c-1.2-1.5-3-2.4-4.9-2.7l-21.7-3c-5.3-9.4-9.9-19.3-13.6-29.5l-27.6,3.5c-7.5,11.8-17.9,21.1-29.8,27.4
			c2.5,2.5,6.4,3.4,9.9,2l0,0c3.1-1.2,6.6-1.6,9.8-0.7c5.1,1.3,8,4.3,9.2,5.7c1.5,3,3,5.9,4.6,8.8c0.5,2.1,0.8,5.6-0.7,9.7
			c-1.1,3.2-3.4,5.8-6.1,7.7l0,0c-4.2,2.9-5.3,8.6-2.5,12.8c2.9,4.2,8.6,5.3,12.8,2.5l0,0c2.8-1.9,6.1-2.9,9.5-2.8
			c3.4,0.1,6.1,1.1,8,2.2c2.5,3.2,5.1,6.4,7.7,9.5c0.9,1.8,2.3,5.5,1.7,10.3c-0.4,3.3-2,6.4-4.3,8.9l0,0c-3.5,3.7-3.4,9.6,0.3,13.1
			c3.7,3.5,9.6,3.4,13.1-0.3l0,0c2.3-2.4,5.3-4.2,8.6-4.8c3.4-0.6,6.3-0.2,8.4,0.4c3.2,2.7,6.5,5.4,9.9,7.9c1.2,1.8,2.9,4.8,3.2,9.1
			c0.2,3.4-0.7,6.7-2.5,9.6l0,0c-2.7,4.3-1.4,10,2.9,12.7h0c4.3,2.7,10,1.4,12.7-2.9l0,0c1.8-2.9,4.4-5.2,7.5-6.4
			c3.5-1.4,6.6-1.5,8.8-1.2c4.1,2.2,8.2,4.2,12.4,6.1c1.6,1.5,3.6,4,4.8,7.8c1,3.2,0.8,6.7-0.3,9.9l0,0c-1.7,4.8,0.8,10.1,5.7,11.8
			c4.8,1.7,10.1-0.8,11.8-5.7l0,0c1.1-3.2,3.1-6,5.9-7.9c2.8-1.9,5.5-2.7,7.6-3c4.4,1.2,8.9,2.3,13.5,3.3c1.8,1.2,4.1,3.2,5.9,6.4
			c1.6,3,2.2,6.4,1.7,9.7l0,0c-0.7,5.1,2.9,9.7,8,10.4c5.1,0.7,9.7-2.9,10.4-8l0,0c0.4-3.3,1.8-6.5,4.1-9c2.3-2.5,4.9-3.8,6.9-4.5
			c3.6,0.2,7.3,0.4,10.9,0.4c0.1,0,0.2,0,0.3,0c1.7,0.4,5.9,1.8,9.3,5.9c2.2,2.6,3.4,5.8,3.6,9.2l0,0c0.4,5.1,4.8,8.9,9.9,8.5
			c5.1-0.4,8.9-4.8,8.5-9.9l0,0c-0.2-3.4,0.5-6.7,2.3-9.6c3.7-5.9,9.1-7.3,9.1-7.3l-0.4,0c2.2-0.4,4.3-0.7,6.5-1.2
			c1.2,0,6,0,10.8,3.8c2.7,2.1,4.5,5,5.4,8.2l0,0c1.4,4.9,6.5,7.7,11.4,6.3c4.9-1.4,7.7-6.5,6.3-11.4l0,0c-0.9-3.2-0.9-6.7,0.2-9.9
			c2.4-6.5,7.4-9.1,7.4-9.1l-0.4,0.1c3-1.2,6-2.4,9-3.7c2.1-0.3,5.9-0.4,10.2,1.7c3,1.5,5.5,3.9,7.1,6.9l0,0c2.4,4.5,8,6.2,12.5,3.8
			c4.5-2.4,6.2-8,3.8-12.5l0,0c-1.6-3-2.3-6.4-1.9-9.7c0.8-5.5,3.7-8.8,4.8-10c3.5-2.3,6.9-4.7,10.3-7.2c2.1-0.5,5.1-0.9,8.7,0
			c3.3,0.8,6.2,2.7,8.3,5.3l0,0c3.3,3.9,9.1,4.4,13,1.1c3.9-3.3,4.4-9.1,1.1-13l0,0c-2.2-2.6-3.6-5.8-3.8-9.1
			c-0.4-5.6,1.9-9.5,2.8-10.8c1.7-1.8,3.4-3.6,5.1-5.5c1.4-1,5.2-3.2,10.7-3.1c3.4,0.1,6.6,1.4,9.3,3.4l0,0c4,3.1,9.8,2.4,13-1.6v0
			c3.1-4,2.4-9.8-1.6-13l0,0c-2.7-2.1-4.7-4.9-5.6-8.1c-1.9-6.7,0.7-11.7,0.7-11.7l-3.2,4.2c2.4-3.6,4.6-7.3,6.8-11.1
			c1-1.2,4.2-4.4,9.8-5.5c3.3-0.6,6.7-0.1,9.8,1.3l0,0c4.6,2.2,10.1,0.2,12.3-4.5c2.2-4.6,0.2-10.1-4.5-12.3l0,0
			c-3.1-1.4-5.7-3.7-7.3-6.7c-2.7-5-2.3-9.5-2.1-11c0.9-2.6,1.8-5.2,2.7-7.8c0.9-1.5,3.3-5.1,8.2-7.2c3.1-1.3,6.6-1.5,9.8-0.8l0,0
			c5,1.1,9.9-2,11.1-7C1644.2,647,1641.1,642,1636.1,640.9z M1234.9,761.2c-11.3,0.9-21.2-7.4-22.1-18.7s7.4-21.2,18.7-22.1
			c11.3-0.9,21.2,7.4,22.1,18.7S1246.2,760.3,1234.9,761.2z M1541.9,757.2c-11.3,0.9-21.2-7.4-22.1-18.7
			c-0.9-11.3,7.4-21.2,18.7-22.1s21.2,7.4,22.1,18.7C1561.6,746.4,1553.2,756.3,1541.9,757.2z"/>
	</g>
	<path class="st6" d="M1651.3,575.3l-8.3-19.2l13-16.3l13-16.3l64.9,8.8c-9.4-23.5-30.9-41.5-57.8-45.1
		c-31.2-4.2-60.4,12.1-74.2,38.4L1163,580.9c-11.2-16.2-29-27.7-50-30.6c-26.9-3.6-52.2,8-67.6,28.1l64.9,8.7l8.3,19.2l8.3,19.2
		l-13,16.3l-13,16.2l-64.9-8.7c9.4,23.5,30.9,41.5,57.8,45.1c29.9,4,58-10.8,72.4-35.3l442.8-55.7c11.3,14.8,28.2,25.2,48.1,27.9
		c26.9,3.6,52.2-8,67.6-28.1l-64.9-8.7L1651.3,575.3z"/>
	<g class="st6">
		
			<rect x="1185.9" y="565.5" transform="matrix(0.9922 -0.1247 0.1247 0.9922 -63.2816 178.1105)" class="st10" width="410" height="58"/>
		<path class="st2" d="M1187.7,590.7l8.2-1l5.6,44.6l13.5-1.7l0.9,7.4l-21.7,2.7L1187.7,590.7z"/>
		<path class="st2" d="M1213.9,587.5l8.2-1l6.5,52.1l-8.2,1L1213.9,587.5z"/>
		<path class="st2" d="M1228.8,585.6l8.2-1l5.6,44.6l13.5-1.7l0.9,7.4l-21.7,2.7L1228.8,585.6z"/>
		<path class="st2" d="M1255,582.3l8.2-1l5.6,44.6l13.5-1.7l0.9,7.4l-21.7,2.7L1255,582.3z"/>
		<path class="st2" d="M1281.1,579l22.3-2.8l0.9,7.4l-14.1,1.8l1.7,13.8l11.2-1.4l0.9,7.4l-11.2,1.4l2,16l14.1-1.8l0.9,7.4
			l-22.3,2.8L1281.1,579z"/>
		<path class="st2" d="M1327.6,573.2l11.1-1.4l15,51l-8.2,1l-2.8-10.2l0,0.1l-9.3,1.2l-0.2,10.4l-7.6,1L1327.6,573.2z M1340.9,606.9
			l-6.9-25.3l-0.1,0l-0.3,26.2L1340.9,606.9z"/>
		<path class="st2" d="M1360.6,619.2c-2.4-2-3.8-5.1-4.3-9.3l-5-39.7l8.2-1l5.1,40.3c0.2,1.8,0.7,3,1.6,3.7c0.8,0.7,1.9,1,3.2,0.8
			c1.3-0.2,2.3-0.7,2.9-1.6c0.6-0.9,0.8-2.2,0.6-4l-5.1-40.3l7.9-1l5,39.7c0.5,4.2-0.1,7.6-1.9,10.1c-1.8,2.5-4.7,4-8.7,4.5
			C1366.1,622,1362.9,621.2,1360.6,619.2z"/>
		<path class="st2" d="M1392.4,590.9l-12.2-24.3l8.6-1.1l7.6,16.1l0.1,0l3.5-17.5l7.7-1l-5.8,26.6l12.8,25.5l-8.6,1.1l-8.2-17.4
			l-0.1,0l-3.8,18.9l-7.7,1L1392.4,590.9z"/>
		<path class="st2" d="M1434.1,610c-2.3-2-3.8-5-4.3-9.1l-3.5-28c-0.5-4.1,0.1-7.3,1.9-9.8c1.8-2.5,4.6-4,8.5-4.5
			c3.9-0.5,7,0.2,9.4,2.2c2.3,2,3.8,5,4.3,9.1l0.7,5.5l-7.7,1l-0.8-6c-0.4-3.2-2-4.7-4.7-4.3c-2.7,0.3-3.9,2.1-3.5,5.4l3.7,29.1
			c0.4,3.2,2,4.6,4.7,4.2c2.7-0.3,3.9-2.1,3.5-5.3l-1-8l7.7-1l0.9,7.4c0.5,4.1-0.1,7.3-1.9,9.8c-1.8,2.5-4.6,4-8.5,4.5
			C1439.5,612.8,1436.4,612,1434.1,610z"/>
		<path class="st2" d="M1465,586.3l-13.7-28.7l8.7-1.1l8,18.4l0.1,0l3.2-19.8l8-1l-6.1,31.2l2.8,22.2l-8.2,1L1465,586.3z"/>
		<path class="st2" d="M1491.1,602.9c-2.3-2-3.8-5-4.3-9.1l-3.5-28c-0.5-4.1,0.1-7.3,1.9-9.8c1.8-2.5,4.6-4,8.5-4.5s7,0.2,9.4,2.2
			c2.3,2,3.8,5,4.3,9.1l0.7,5.5l-7.7,1l-0.8-6c-0.4-3.2-2-4.7-4.7-4.3c-2.7,0.3-3.9,2.1-3.5,5.4l3.7,29.1c0.4,3.2,2,4.6,4.7,4.2
			c2.7-0.3,3.9-2.1,3.5-5.3l-1-8l7.7-1l0.9,7.4c0.5,4.1-0.1,7.3-1.9,9.8s-4.6,4-8.5,4.5C1496.5,605.6,1493.4,604.9,1491.1,602.9z"/>
		<path class="st2" d="M1511.4,550.1l8.2-1l5.6,44.6l13.5-1.7l0.9,7.4l-21.7,2.7L1511.4,550.1z"/>
		<path class="st2" d="M1537.6,546.8l22.3-2.8l0.9,7.4l-14.1,1.8l1.7,13.8l11.2-1.4l0.9,7.4l-11.2,1.4l2,16l14.1-1.8l0.9,7.4
			l-22.3,2.8L1537.6,546.8z"/>
		<path class="st2" d="M1573.2,592.5c-2.3-2-3.7-5.1-4.3-9.3l-0.4-3l7.7-1l0.4,3.6c0.4,3.4,2,4.9,4.9,4.5c1.4-0.2,2.4-0.7,3-1.6
			c0.6-0.9,0.8-2.3,0.6-4.1c-0.3-2.2-1-4-2.2-5.6c-1.2-1.5-3.3-3.3-6.3-5.3c-3.7-2.6-6.4-4.9-8.1-7.2c-1.6-2.2-2.7-4.9-3-7.9
			c-0.5-4.1,0.1-7.4,1.9-10c1.8-2.5,4.7-4,8.7-4.5c3.9-0.5,7,0.3,9.3,2.3c2.3,2,3.7,5.1,4.2,9.3l0.3,2.2l-7.7,1l-0.3-2.7
			c-0.2-1.8-0.7-3-1.5-3.8c-0.8-0.7-1.9-1-3.2-0.8c-2.7,0.3-3.9,2.2-3.5,5.5c0.2,1.9,1,3.6,2.2,5.1c1.2,1.5,3.3,3.3,6.3,5.3
			c3.8,2.5,6.5,5,8.1,7.2c1.6,2.3,2.6,5,3,8.3c0.5,4.3-0.1,7.7-1.9,10.2c-1.8,2.5-4.7,4.1-8.8,4.6
			C1578.6,595.3,1575.5,594.5,1573.2,592.5z"/>
	</g>
	<rect x="1330.7" y="778.8" class="st6" width="43.2" height="38.6"/>
	<rect x="1401.2" y="778.8" class="st6" width="43.2" height="38.6"/>
	<rect x="1377.9" y="778.8" class="st6" width="19.3" height="38.6"/>
	<polygon class="st6" points="1330.7,774.1 1338.6,759.5 1373.2,759.5 1373.2,774.1 	"/>
	<polygon class="st6" points="1443.7,774.1 1435.7,759.5 1401.2,759.5 1401.2,774.1 	"/>
	<path class="st6" d="M1375.5,729.6l2.6,8.6v35.9h5.3v-9.3l3.9-4l3.9,4v9.3h5.9v-35.9l2.3-8.6H1375.5z M1387.5,746.7
		c-3,0-5.5-2.5-5.5-5.5c0-3,2.5-5.5,5.5-5.5c3,0,5.5,2.5,5.5,5.5C1393,744.2,1390.5,746.7,1387.5,746.7z"/>
	<rect x="1375.5" y="706.6" class="st6" width="24" height="18.6"/>
	<polygon class="st6" points="1397,681 1394.5,694.3 1394.4,694.3 1394.4,678.4 1380.7,678.4 1380.7,694.3 1380.6,694.3 1378.1,681 
		1375.7,694.3 1375.5,694.3 1375.5,703 1399.5,703 1399.5,694.3 1399.4,694.3 	"/>
	<path class="st6" d="M1384.7,668.9c-2.4,1.1-4,3.5-4,6.3h14c0-2.8-1.6-5.2-4-6.3v-2.7h0c1.2-0.9,2-2.4,2-4c0-2.8-2.2-5-5-5
		c-2.8,0-5,2.2-5,5c0,1.6,0.8,3.1,2,4h0V668.9z"/>
	<rect x="1387.2" y="645.3" class="st6" width="1" height="12.7"/>
	<path class="st6" d="M1305.7,477.1c-23.3,3.2-39.6,24.7-36.4,48c3.2,23.3,24.7,39.6,48,36.4s39.6-24.7,36.4-48
		C1350.5,490.2,1329,473.9,1305.7,477.1z M1316.5,555.6c-20,2.7-38.5-11.3-41.3-31.3c-2.7-20,11.3-38.5,31.3-41.3
		c20-2.7,38.5,11.3,41.3,31.3C1350.5,534.4,1336.5,552.8,1316.5,555.6z"/>
	<path class="st6" d="M1438.5,460.2c-23.3,3.2-39.6,24.7-36.4,48c3.2,23.3,24.7,39.6,48,36.4c23.3-3.2,39.6-24.7,36.4-48
		S1461.8,457,1438.5,460.2z M1449.2,538.7c-20,2.7-38.5-11.3-41.3-31.3c-2.7-20,11.3-38.5,31.3-41.3c20-2.7,38.5,11.3,41.3,31.3
		C1483.3,517.5,1469.2,535.9,1449.2,538.7z"/>
	<circle class="st6" cx="1443.1" cy="501.3" r="5.5"/>
	<circle class="st6" cx="1312.8" cy="518.6" r="5.5"/>
	<circle class="st6" cx="1370.1" cy="511.7" r="11.4"/>
	<circle class="st6" cx="1370.1" cy="511.7" r="6.9"/>
	<polygon class="st6" points="1317.2,517.1 1360.8,511.2 1361.3,514.8 1315,521.1 	"/>
	
		<rect x="1288" y="484.8" transform="matrix(0.4045 -0.9145 0.9145 0.4045 344.3573 1502.2026)" class="st6" width="75.5" height="3.7"/>
	
		<rect x="1315.5" y="470.6" transform="matrix(-0.4547 -0.8906 0.8906 -0.4547 1544.0576 1890.2162)" class="st6" width="70.3" height="3.7"/>
	
		<rect x="1339" y="446.1" transform="matrix(-0.9908 0.1355 -0.1355 -0.9908 2796.2839 705.6315)" class="st6" width="70.3" height="3.7"/>
	<path class="st6" d="M1403.6,430.4l19.5-2.7c0.6-0.1,1.2,0.4,1.3,1l0.2,1.4c0.1,0.6-0.4,1.2-1,1.3l-19.5,2.7
		c-0.6,0.1-1.2-0.4-1.3-1l-0.2-1.4C1402.5,431.1,1403,430.5,1403.6,430.4z"/>
	<path class="st6" d="M1419.3,437.5l5-0.7c0.6-0.1,1.2,0.4,1.3,1l0.2,1.4c0.1,0.6-0.4,1.2-1,1.3l-5,0.7c-0.6,0.1-1.2-0.4-1.3-1
		l-0.2-1.4C1418.3,438.2,1418.7,437.6,1419.3,437.5z"/>
	
		<rect x="1356.3" y="471.5" transform="matrix(-0.5232 0.8522 -0.8522 -0.5232 2522.8582 -464.8492)" class="st6" width="70.3" height="3.7"/>
	<path class="st6" d="M1406.9,432.1l36.3,65.3c0.5,0.9,0.2,2.1-0.7,2.6l0,0c-0.9,0.5-2,0.2-2.6-0.7l-36.3-65.3
		c-0.5-0.9-0.2-2.1,0.7-2.6l0,0C1405.2,430.9,1406.3,431.2,1406.9,432.1z"/>
	<g class="st6">
		<path d="M1422.4,427.8l0.5,3.6c1.5-0.2,2.9,0.8,3.1,2.4c0.2,1.5-0.8,2.9-2.4,3.1l0.5,3.6c3.5-0.5,6-3.7,5.5-7.2
			C1429.2,429.8,1425.9,427.4,1422.4,427.8z"/>
	</g>
	<path class="st6" d="M1321.8,436c0.9-0.1,30.2-2.3,30.2-2.3c3.8,0.4,3.2,3.3-1.2,4.8c-4.4,1.5-27.5,8.4-27.5,8.4
		C1315.3,449,1312.9,438.2,1321.8,436z"/>
	
		<rect x="1371.4" y="522.6" transform="matrix(0.9908 -0.1355 0.1355 0.9908 -58.8897 190.7925)" class="st6" width="1.8" height="11"/>
	
		<rect x="1369.4" y="532.6" transform="matrix(0.9908 -0.1355 0.1355 0.9908 -59.6206 190.9435)" class="st6" width="7.3" height="1.8"/>
</g>
<g id="logo_noir_police_Tr" class="st0">
	<g class="st6">
		<path d="M1916.4,535.9L1916.4,535.9c3.3,0.8,6.3,2.6,8.5,5.1c3.2,3.8,3.9,7.7,4.1,9.7c-0.2,1.3-0.4,2.5-0.6,3.8
			c7.2,4.8,13.7,10.8,19,17.7l20-2.5c1.4-14.8,4.4-29.1,8.8-42.8l9.3-1.4c1.9-0.3,3.7-1.3,4.9-2.9l38.4-51.3
			c1.1-1.5,1.6-3.3,1.5-5.2l-2.1-22.8c36.6-35.5,86.4-57.4,141.4-57.4c51.9,0,99.2,19.5,135.1,51.5l-0.2-0.1
			c-0.4-0.2-0.9,0.1-0.9,0.6l-2.6,28.1c-0.2,1.9,0.4,3.8,1.5,5.4l38.3,51.1c0.1,0.1,0.1,0.2,0.2,0.3l39.2-4.9
			c7.5-13,18.4-23.3,31.1-30.2c-2-4.6-7.4-6.7-12-4.8l0,0c-3.1,1.3-6.6,1.7-9.8,0.9c-6.8-1.6-9.9-6.3-9.9-6.3l0.2,0.6
			c-1.1-2.1-2.3-4.2-3.5-6.3c-0.5-1.9-1.1-5.8,0.5-10.4c1.1-3.2,3.4-5.8,6.1-7.7l0,0c4.2-2.9,5.3-8.6,2.5-12.8
			c-2.9-4.2-8.6-5.3-12.8-2.5l0,0c-2.8,1.9-6.1,2.9-9.5,2.8c-5.5-0.2-9.1-2.7-10.5-3.7c-1.8-2.2-3.6-4.4-5.5-6.5l0.5,0.5
			c0,0-3.3-4.6-2.4-11.5c0.4-3.3,2-6.4,4.3-8.9l0,0c3.5-3.7,3.4-9.6-0.3-13.1h0c-3.7-3.5-9.6-3.4-13.1,0.3l0,0
			c-2.3,2.4-5.3,4.2-8.6,4.8c-6.9,1.3-11.6-1.8-11.6-1.8l0.4,0.4c-1.6-1.3-3.3-2.6-4.9-3.8c-0.9-1-4-4.6-4.4-10.5
			c-0.2-3.4,0.7-6.7,2.5-9.6l0,0c2.7-4.3,1.4-10-2.9-12.7c-4.3-2.7-10-1.4-12.7,2.9l0,0c-1.8,2.9-4.4,5.2-7.5,6.4
			c-5.7,2.3-10.6,1-11.6,0.7c-2.4-1.2-4.8-2.4-7.2-3.5l0.1,0c0,0-4.9-2.8-6.9-9.5c-1-3.2-0.8-6.7,0.3-9.9l0,0
			c1.7-4.8-0.8-10.1-5.7-11.8c-4.8-1.7-10.1,0.8-11.8,5.7l0,0c-1.1,3.2-3.1,6-5.9,7.9c-4.3,3-8.6,3.2-10.4,3.2
			c-2.7-0.7-5.4-1.4-8.1-2l2,0.3c0,0-5.4-1.8-8.8-8c-1.6-3-2.2-6.4-1.7-9.7l0,0c0.7-5.1-2.9-9.7-8-10.3c-5.1-0.7-9.7,2.9-10.4,8l0,0
			c-0.4,3.3-1.8,6.5-4.1,9c-3.9,4.1-8.3,5.1-9.9,5.3c-2.4-0.1-4.9-0.2-7.3-0.3c-1.2-0.2-6-1.4-9.9-6c-2.2-2.6-3.4-5.8-3.6-9.2l0,0
			c-0.4-5.1-4.8-8.9-9.9-8.5s-8.9,4.8-8.5,9.9l0,0c0.2,3.4-0.5,6.8-2.3,9.6c-3.1,5-7.4,6.8-8.7,7.2c-2.7,0.4-5.3,0.9-7.9,1.4
			c-2.1-0.2-5.8-0.9-9.4-3.8c-2.6-2.1-4.5-5-5.4-8.3l0,0c-1.4-4.9-6.5-7.8-11.4-6.4c-4.9,1.4-7.8,6.5-6.4,11.4l0,0
			c0.9,3.2,0.9,6.7-0.3,9.9c-1.9,5-5.3,7.7-6.8,8.6c-2.9,1.1-5.8,2.3-8.7,3.5l1.6-0.9c0,0-5.5,1.6-11.7-1.4c-3-1.5-5.5-3.9-7.1-6.9
			l0,0c-2.4-4.5-8-6.2-12.5-3.8c-4.5,2.4-6.2,8-3.8,12.5l0,0c1.6,3,2.3,6.4,1.9,9.7c-1,6.9-5.3,10.4-5.3,10.4l0.1,0
			c-1.6,1.1-3.2,2.1-4.8,3.2c-1.1,0.5-5.5,2.4-11.4,0.9c-3.3-0.8-6.1-2.8-8.3-5.4l0,0c-3.3-3.9-9.1-4.5-13-1.2
			c-3.9,3.3-4.5,9.1-1.2,13l0,0c2.2,2.6,3.5,5.8,3.7,9.1c0.4,5.7-2,9.7-2.9,10.9c-1.9,1.9-3.8,3.8-5.6,5.8l0.2-0.3
			c0,0-4.3,3.7-11.3,3.5c-3.4-0.1-6.6-1.4-9.3-3.4l0,0c-4-3.1-9.8-2.4-13,1.6c-3.1,4-2.4,9.8,1.6,13l0,0c2.7,2.1,4.7,4.9,5.6,8.1
			c1.4,5,0.4,9-0.3,10.8c-1,1.6-2.1,3.2-3.1,4.8c-1.2,1.3-4.4,4.1-9.7,5c-3.3,0.6-6.7-0.1-9.7-1.6l0,0c-4.6-2.3-10.1-0.4-12.4,4.1
			c-2.3,4.6-0.4,10.1,4.1,12.4l0,0c3,1.5,5.5,3.9,7.1,6.9c2.1,4.1,2.1,7.8,1.9,9.9c-1.5,3.8-3,7.6-4.3,11.5l0.4-1.6
			c0,0-2.3,5.1-8.8,7.8c-3.1,1.3-6.6,1.4-9.9,0.6l0,0c-5-1.2-10,1.8-11.2,6.8C1908.4,529.7,1911.4,534.7,1916.4,535.9z
			 M2342.3,455.2c11.3-0.9,21.2,7.4,22.1,18.7c0.9,11.3-7.4,21.2-18.7,22.1s-21.2-7.4-22.1-18.7C2322.7,466,2331,456.1,2342.3,455.2
			z M1986.5,456.5c11.3-0.9,21.2,7.4,22.1,18.7s-7.4,21.2-18.7,22.1s-21.2-7.4-22.1-18.7C1966.8,467.3,1975.2,457.4,1986.5,456.5z"
			/>
		<path d="M2417.9,638.8L2417.9,638.8c-3.3-0.8-6.3-2.4-8.6-5c-3.3-3.8-4.1-7.8-4.3-9.7c0.1-0.4,0.1-0.7,0.1-1.1
			c-6.4-4.2-12.2-9.3-17.3-15.4l-16.5,2.1c-2.8,28.2-11.5,54.7-24.7,78.3c0,0,0,0,0,0l-25.6,3.5c-1.9,0.3-3.6,1.2-4.9,2.7l-41,48.9
			c-1.3,1.6-1.9,3.6-1.8,5.6l1.1,14c-30.7,18.6-66.7,29.3-105.2,29.3c-40,0-77.2-11.6-108.7-31.5l1-11.8c0.2-2-0.5-4-1.8-5.6
			l-41-48.9c-1.2-1.5-3-2.4-4.9-2.7l-21.7-3c-5.3-9.4-9.9-19.3-13.6-29.5l-27.6,3.5c-7.5,11.8-17.9,21.1-29.8,27.4
			c2.5,2.5,6.4,3.4,9.9,2l0,0c3.1-1.2,6.6-1.6,9.8-0.7c5.1,1.3,8,4.3,9.2,5.7c1.5,3,3,5.9,4.6,8.8c0.5,2.1,0.8,5.6-0.7,9.7
			c-1.1,3.2-3.4,5.8-6.1,7.7l0,0c-4.2,2.9-5.3,8.6-2.5,12.8c2.9,4.2,8.6,5.3,12.8,2.5l0,0c2.8-1.9,6.1-2.9,9.5-2.8
			c3.4,0.1,6.1,1.1,8,2.2c2.5,3.2,5.1,6.4,7.7,9.5c0.9,1.8,2.3,5.5,1.7,10.3c-0.4,3.3-2,6.4-4.3,8.9l0,0c-3.5,3.7-3.4,9.6,0.3,13.1
			c3.7,3.5,9.6,3.4,13.1-0.3l0,0c2.3-2.4,5.3-4.2,8.6-4.8c3.4-0.6,6.3-0.2,8.4,0.4c3.2,2.7,6.5,5.4,9.9,7.9c1.2,1.8,2.9,4.8,3.2,9.1
			c0.2,3.4-0.7,6.7-2.5,9.6l0,0c-2.7,4.3-1.4,10,2.9,12.7h0c4.3,2.7,10,1.4,12.7-2.9l0,0c1.8-2.9,4.4-5.2,7.5-6.4
			c3.5-1.4,6.6-1.5,8.8-1.2c4.1,2.2,8.2,4.2,12.4,6.1c1.6,1.5,3.6,4,4.8,7.8c1,3.2,0.8,6.7-0.3,9.9l0,0c-1.7,4.8,0.8,10.1,5.7,11.8
			c4.8,1.7,10.1-0.8,11.8-5.7l0,0c1.1-3.2,3.1-6,5.9-7.9c2.8-1.9,5.5-2.7,7.6-3c4.4,1.2,8.9,2.3,13.5,3.3c1.8,1.2,4.1,3.2,5.9,6.4
			c1.6,3,2.2,6.4,1.7,9.7l0,0c-0.7,5.1,2.9,9.7,8,10.4c5.1,0.7,9.7-2.9,10.4-8l0,0c0.4-3.3,1.8-6.5,4.1-9c2.3-2.5,4.9-3.8,6.9-4.5
			c3.6,0.2,7.3,0.4,10.9,0.4c0.1,0,0.2,0,0.3,0c1.7,0.4,5.9,1.8,9.3,5.9c2.2,2.6,3.4,5.8,3.6,9.2l0,0c0.4,5.1,4.8,8.9,9.9,8.5
			c5.1-0.4,8.9-4.8,8.5-9.9l0,0c-0.2-3.4,0.5-6.7,2.3-9.6c3.7-5.9,9.1-7.3,9.1-7.3l-0.4,0c2.2-0.4,4.3-0.7,6.5-1.2
			c1.2,0,6,0,10.8,3.8c2.7,2.1,4.5,5,5.4,8.2l0,0c1.4,4.9,6.5,7.7,11.4,6.3c4.9-1.4,7.7-6.5,6.3-11.4l0,0c-0.9-3.2-0.9-6.7,0.2-9.9
			c2.4-6.5,7.4-9.1,7.4-9.1l-0.4,0.1c3-1.2,6-2.4,9-3.7c2.1-0.3,5.9-0.4,10.2,1.7c3,1.5,5.5,3.9,7.1,6.9l0,0c2.4,4.5,8,6.2,12.5,3.8
			c4.5-2.4,6.2-8,3.8-12.5l0,0c-1.6-3-2.3-6.4-1.9-9.7c0.8-5.5,3.7-8.8,4.8-10c3.5-2.3,6.9-4.7,10.3-7.2c2.1-0.5,5.1-0.9,8.7,0
			c3.3,0.8,6.2,2.7,8.3,5.3l0,0c3.3,3.9,9.1,4.4,13,1.1c3.9-3.3,4.4-9.1,1.1-13l0,0c-2.2-2.6-3.6-5.8-3.8-9.1
			c-0.4-5.6,1.9-9.5,2.8-10.8c1.7-1.8,3.4-3.6,5.1-5.5c1.4-1,5.2-3.2,10.7-3.1c3.4,0.1,6.6,1.4,9.3,3.4l0,0c4,3.1,9.8,2.4,13-1.6v0
			c3.1-4,2.4-9.8-1.6-13l0,0c-2.7-2.1-4.7-4.9-5.6-8.1c-1.9-6.7,0.7-11.7,0.7-11.7l-3.2,4.2c2.4-3.6,4.6-7.3,6.8-11.1
			c1-1.2,4.2-4.4,9.8-5.5c3.3-0.6,6.7-0.1,9.8,1.3l0,0c4.6,2.2,10.1,0.2,12.3-4.5c2.2-4.6,0.2-10.1-4.5-12.3l0,0
			c-3.1-1.4-5.7-3.7-7.3-6.7c-2.7-5-2.3-9.5-2.1-11c0.9-2.6,1.8-5.2,2.7-7.8c0.9-1.5,3.3-5.1,8.2-7.2c3.1-1.3,6.6-1.5,9.8-0.8l0,0
			c5,1.1,9.9-2,11.1-7C2426,644.8,2422.8,639.9,2417.9,638.8z M2016.7,759.1c-11.3,0.9-21.2-7.4-22.1-18.7s7.4-21.2,18.7-22.1
			c11.3-0.9,21.2,7.4,22.1,18.7S2028,758.1,2016.7,759.1z M2323.7,755.1c-11.3,0.9-21.2-7.4-22.1-18.7c-0.9-11.3,7.4-21.2,18.7-22.1
			s21.2,7.4,22.1,18.7C2343.4,744.2,2335,754.1,2323.7,755.1z"/>
	</g>
	<g class="st6">
		<polygon points="2115.6,579.4 2115.3,605.6 2122.7,604.7 2115.8,579.4 		"/>
		<path d="M2433.1,573.2l-8.3-19.2l13-16.3l13-16.3l64.9,8.8c-9.4-23.5-30.9-41.5-57.8-45.1c-31.2-4.2-60.4,12.1-74.2,38.4
			l-439.1,55.2c-11.2-16.2-29-27.7-50-30.6c-26.9-3.6-52.2,8-67.6,28.1l64.9,8.7l8.3,19.2l8.3,19.2l-13,16.3l-13,16.2l-64.9-8.7
			c9.4,23.5,30.9,41.5,57.8,45.1c29.9,4,58-10.8,72.4-35.3l442.8-55.7c11.3,14.8,28.2,25.2,48.1,27.9c26.9,3.6,52.2-8,67.6-28.1
			l-64.9-8.7L2433.1,573.2z M1976,640.7l-6.5-52.1l8.2-1l5.6,44.6l13.5-1.7l0.9,7.4L1976,640.7z M2002.2,637.4l-6.5-52.1l8.2-1
			l6.5,52.1L2002.2,637.4z M2017.1,635.5l-6.5-52.1l8.2-1l5.6,44.6l13.5-1.7l0.9,7.4L2017.1,635.5z M2043.3,632.2l-6.5-52.1l8.2-1
			l5.6,44.6l13.5-1.7l0.9,7.4L2043.3,632.2z M2069.5,628.9l-6.5-52.1l22.3-2.8l0.9,7.4l-14.1,1.8l1.7,13.8l11.2-1.4l0.9,7.4
			l-11.2,1.4l2,16l14.1-1.8l0.9,7.4L2069.5,628.9z M2127.3,621.7l-2.8-10.2l0,0.1l-9.3,1.2l-0.2,10.4l-7.6,1l1.9-53.2l11.1-1.4
			l15,51L2127.3,621.7z M2160.5,614.8c-1.8,2.5-4.7,4-8.7,4.5c-4,0.5-7.1-0.2-9.5-2.2c-2.4-2-3.8-5.1-4.3-9.3l-5-39.7l8.2-1
			l5.1,40.3c0.2,1.8,0.7,3,1.6,3.7c0.8,0.7,1.9,1,3.2,0.8c1.3-0.2,2.3-0.7,2.9-1.6c0.6-0.9,0.8-2.2,0.6-4l-5.1-40.3l7.9-1l5,39.7
			C2163,608.9,2162.3,612.3,2160.5,614.8z M2188,614l-8.2-17.4l-0.1,0l-3.8,18.9l-7.7,1l6.1-27.8l-12.2-24.3l8.6-1.1l7.6,16.1l0.1,0
			l3.5-17.5l7.7-1l-5.8,26.6l12.8,25.5L2188,614z M2233.8,605.6c-1.8,2.5-4.6,4-8.5,4.5c-3.9,0.5-7-0.2-9.4-2.2s-3.8-5-4.3-9.1
			l-3.5-28c-0.5-4.1,0.1-7.3,1.9-9.8c1.8-2.5,4.6-4,8.5-4.5c3.9-0.5,7,0.2,9.4,2.2c2.3,2,3.8,5,4.3,9.1l0.7,5.5l-7.7,1l-0.8-6
			c-0.4-3.2-2-4.7-4.7-4.3c-2.7,0.3-3.9,2.1-3.5,5.4l3.7,29.1c0.4,3.2,2,4.6,4.7,4.2c2.7-0.3,3.9-2.1,3.5-5.3l-1-8l7.7-1l0.9,7.4
			C2236.2,599.9,2235.6,603.2,2233.8,605.6z M2257.7,605.3l-8.2,1l-2.8-22.2l-13.7-28.7l8.7-1.1l8,18.4l0.1,0l3.2-19.8l8-1
			l-6.1,31.2L2257.7,605.3z M2290.8,598.5c-1.8,2.5-4.6,4-8.5,4.5c-3.9,0.5-7-0.2-9.4-2.2c-2.3-2-3.8-5-4.3-9.1l-3.5-28
			c-0.5-4.1,0.1-7.3,1.9-9.8c1.8-2.5,4.6-4,8.5-4.5s7,0.2,9.4,2.2c2.3,2,3.8,5,4.3,9.1l0.7,5.5l-7.7,1l-0.8-6
			c-0.4-3.2-2-4.7-4.7-4.3c-2.7,0.3-3.9,2.1-3.5,5.4l3.7,29.1c0.4,3.2,2,4.6,4.7,4.2c2.7-0.3,3.9-2.1,3.5-5.3l-1-8l7.7-1l0.9,7.4
			C2293.2,592.7,2292.6,596,2290.8,598.5z M2299.7,600l-6.5-52.1l8.2-1l5.6,44.6l13.5-1.7l0.9,7.4L2299.7,600z M2325.9,596.7
			l-6.5-52.1l22.3-2.8l0.9,7.4l-14.1,1.8l1.7,13.8l11.2-1.4l0.9,7.4l-11.2,1.4l2,16l14.1-1.8l0.9,7.4L2325.9,596.7z M2373.2,588
			c-1.8,2.5-4.7,4.1-8.8,4.6c-4,0.5-7.1-0.3-9.4-2.3c-2.3-2-3.7-5.1-4.3-9.3l-0.4-3l7.7-1l0.4,3.6c0.4,3.4,2,4.9,4.9,4.5
			c1.4-0.2,2.4-0.7,3-1.6c0.6-0.9,0.8-2.3,0.6-4.1c-0.3-2.2-1-4-2.2-5.6c-1.2-1.5-3.3-3.3-6.3-5.3c-3.7-2.6-6.4-4.9-8.1-7.2
			c-1.6-2.2-2.7-4.9-3-7.9c-0.5-4.1,0.1-7.4,1.9-10c1.8-2.5,4.7-4,8.7-4.5c3.9-0.5,7,0.3,9.3,2.3c2.3,2,3.7,5.1,4.2,9.3l0.3,2.2
			l-7.7,1l-0.3-2.7c-0.2-1.8-0.7-3-1.5-3.8c-0.8-0.7-1.9-1-3.2-0.8c-2.7,0.3-3.9,2.2-3.5,5.5c0.2,1.9,1,3.6,2.2,5.1
			c1.2,1.5,3.3,3.3,6.3,5.3c3.8,2.5,6.5,5,8.1,7.2c1.6,2.3,2.6,5,3,8.3C2375.6,582.1,2375,585.5,2373.2,588z"/>
	</g>
	<rect x="2112.5" y="776.7" class="st6" width="43.2" height="38.6"/>
	<rect x="2183" y="776.7" class="st6" width="43.2" height="38.6"/>
	<rect x="2159.7" y="776.7" class="st6" width="19.3" height="38.6"/>
	<polygon class="st6" points="2112.5,772 2120.4,757.4 2155,757.4 2155,772 	"/>
	<polygon class="st6" points="2225.5,772 2217.5,757.4 2183,757.4 2183,772 	"/>
	<path class="st6" d="M2157.3,727.4l2.6,8.6V772h5.3v-9.3l3.9-4l3.9,4v9.3h5.9v-35.9l2.3-8.6H2157.3z M2169.3,744.5
		c-3,0-5.5-2.5-5.5-5.5c0-3,2.5-5.5,5.5-5.5c3,0,5.5,2.5,5.5,5.5C2174.8,742.1,2172.3,744.5,2169.3,744.5z"/>
	<rect x="2157.3" y="704.5" class="st6" width="24" height="18.6"/>
	<polygon class="st6" points="2178.7,678.9 2176.3,692.2 2176.1,692.2 2176.1,676.2 2162.5,676.2 2162.5,692.2 2162.4,692.2 
		2159.9,678.9 2157.5,692.2 2157.3,692.2 2157.3,700.8 2181.3,700.8 2181.3,692.2 2181.2,692.2 	"/>
	<path class="st6" d="M2166.5,666.8c-2.4,1.1-4,3.5-4,6.3h14c0-2.8-1.6-5.2-4-6.3v-2.7h0c1.2-0.9,2-2.4,2-4c0-2.8-2.2-5-5-5
		s-5,2.2-5,5c0,1.6,0.8,3.1,2,4h0V666.8z"/>
	<rect x="2169" y="643.1" class="st6" width="1" height="12.7"/>
	<path class="st6" d="M2087.5,474.9c-23.3,3.2-39.6,24.7-36.4,48c3.2,23.3,24.7,39.6,48,36.4c23.3-3.2,39.6-24.7,36.4-48
		C2132.3,488.1,2110.8,471.7,2087.5,474.9z M2098.3,553.4c-20,2.7-38.5-11.3-41.3-31.3c-2.7-20,11.3-38.5,31.3-41.3
		c20-2.7,38.5,11.3,41.3,31.3C2132.3,532.2,2118.3,550.7,2098.3,553.4z"/>
	<path class="st6" d="M2220.3,458c-23.3,3.2-39.6,24.7-36.4,48s24.7,39.6,48,36.4s39.6-24.7,36.4-48
		C2265,471.1,2243.6,454.8,2220.3,458z M2231,536.5c-20,2.7-38.5-11.3-41.3-31.3c-2.7-20,11.3-38.5,31.3-41.3
		c20-2.7,38.5,11.3,41.3,31.3C2265.1,515.3,2251,533.8,2231,536.5z"/>
	<circle class="st6" cx="2224.9" cy="499.1" r="5.5"/>
	<circle class="st6" cx="2094.6" cy="516.5" r="5.5"/>
	<circle class="st6" cx="2151.9" cy="509.6" r="11.4"/>
	<circle class="st6" cx="2151.9" cy="509.6" r="6.9"/>
	<polygon class="st6" points="2099,515 2142.6,509 2143.1,512.6 2096.8,519 	"/>
	
		<rect x="2069.8" y="482.6" transform="matrix(0.4045 -0.9145 0.9145 0.4045 811.8393 2215.8818)" class="st6" width="75.5" height="3.7"/>
	
		<rect x="2097.3" y="468.4" transform="matrix(-0.4547 -0.8906 0.8906 -0.4547 2683.2478 2583.3823)" class="st6" width="70.3" height="3.7"/>
	
		<rect x="2120.8" y="443.9" transform="matrix(-0.9908 0.1355 -0.1355 -0.9908 4352.3628 595.4368)" class="st6" width="70.3" height="3.7"/>
	<path class="st6" d="M2185.4,428.3l19.5-2.7c0.6-0.1,1.2,0.4,1.3,1l0.2,1.4c0.1,0.6-0.4,1.2-1,1.3l-19.5,2.7
		c-0.6,0.1-1.2-0.4-1.3-1l-0.2-1.4C2184.3,428.9,2184.8,428.4,2185.4,428.3z"/>
	<path class="st6" d="M2201.1,435.4l5-0.7c0.6-0.1,1.2,0.4,1.3,1l0.2,1.4c0.1,0.6-0.4,1.2-1,1.3l-5,0.7c-0.6,0.1-1.2-0.4-1.3-1
		l-0.2-1.4C2200.1,436,2200.5,435.4,2201.1,435.4z"/>
	
		<rect x="2138.1" y="469.3" transform="matrix(-0.5232 0.8522 -0.8522 -0.5232 3711.8467 -1134.3715)" class="st6" width="70.3" height="3.7"/>
	<path class="st6" d="M2188.6,430l36.3,65.3c0.5,0.9,0.2,2.1-0.7,2.6v0c-0.9,0.5-2,0.2-2.6-0.7l-36.3-65.3c-0.5-0.9-0.2-2.1,0.7-2.6
		l0,0C2187,428.7,2188.1,429,2188.6,430z"/>
	<g class="st6">
		<path d="M2204.2,425.7l0.5,3.6c1.5-0.2,2.9,0.8,3.1,2.4s-0.8,2.9-2.4,3.1l0.5,3.6c3.5-0.5,6-3.7,5.5-7.2
			C2211,427.7,2207.7,425.2,2204.2,425.7z"/>
	</g>
	<path class="st6" d="M2103.6,433.9c0.9-0.1,30.2-2.3,30.2-2.3c3.8,0.4,3.2,3.3-1.2,4.8c-4.4,1.5-27.5,8.4-27.5,8.4
		C2097.1,446.8,2094.7,436,2103.6,433.9z"/>
	
		<rect x="2153.2" y="520.4" transform="matrix(0.9908 -0.1355 0.1355 0.9908 -51.3906 296.6894)" class="st6" width="1.8" height="11"/>
	
		<rect x="2151.2" y="530.4" transform="matrix(0.9908 -0.1355 0.1355 0.9908 -52.1214 296.8405)" class="st6" width="7.3" height="1.8"/>
</g>
</svg>
